<svg width="10" height="17" viewBox="0 0 10 17" fill="none" xmlns="http://www.w3.org/2000/svg">
<path d="M0.038924 8.64279C0.038924 8.77671 0.105888 8.92738 0.206334 9.02783L8.00767 16.8292C8.10812 16.9296 8.25879 16.9966 8.39272 16.9966C8.52665 16.9966 8.67732 16.9296 8.77776 16.8292L9.61482 15.9921C9.71526 15.8917 9.78223 15.741 9.78223 15.6071C9.78223 15.4731 9.71526 15.3225 9.61482 15.222L3.03558 8.64279L9.61482 2.06354C9.71526 1.9631 9.78223 1.81243 9.78223 1.6785C9.78223 1.52783 9.71526 1.3939 9.61482 1.29346L8.77776 0.456402C8.67732 0.355955 8.52665 0.28899 8.39272 0.28899C8.25879 0.28899 8.10812 0.355955 8.00767 0.456402L0.206334 8.25774C0.105888 8.35819 0.038924 8.50886 0.038924 8.64279Z" fill="white"/>
</svg>
