<svg width="17" height="14" viewBox="0 0 17 14" fill="none" xmlns="http://www.w3.org/2000/svg">
<path fill-rule="evenodd" clip-rule="evenodd" d="M2 1C2 0.447715 2.44772 0 3 0H16C16.5523 0 17 0.447715 17 1C17 1.55229 16.5523 2 16 2H3C2.44772 2 2 1.55229 2 1ZM0 7C0 6.44772 0.447715 6 1 6H16C16.5523 6 17 6.44772 17 7C17 7.55228 16.5523 8 16 8H1C0.447715 8 0 7.55228 0 7ZM8 12C7.44772 12 7 12.4477 7 13C7 13.5523 7.44772 14 8 14H16C16.5523 14 17 13.5523 17 13C17 12.4477 16.5523 12 16 12H8Z" fill="black"/>
</svg>
