<svg width="24" height="24" viewBox="0 0 24 24" fill="none" xmlns="http://www.w3.org/2000/svg">
<path d="M0.999023 5H22.999V18.5H0.999023V5Z" fill="#ECEFF1"/>
<path d="M1 5H23V6.5H1V5ZM1 8H23V9.5H1V8ZM1 11H23V12.5H1V11ZM1 14H23V15.5H1V14ZM1 17H23V18.5H1V17Z" fill="#F44336"/>
<path d="M1 5H11.5V12.5H1V5Z" fill="#3F51B5"/>
<path d="M2.125 6L2.35645 6.49414L2.875 6.57324L2.5 6.95801L2.58887 7.5L2.125 7.24414L1.66113 7.5L1.75 6.95801L1.375 6.57324L1.89355 6.49414L2.125 6ZM4.125 6L4.35645 6.49414L4.875 6.57324L4.5 6.95801L4.58887 7.5L4.125 7.24414L3.66113 7.5L3.75 6.95801L3.375 6.57324L3.89355 6.49414L4.125 6ZM6.125 6L6.35645 6.49414L6.875 6.57324L6.5 6.95801L6.58887 7.5L6.125 7.24414L5.66113 7.5L5.75 6.95801L5.375 6.57324L5.89355 6.49414L6.125 6ZM8.125 6L8.35645 6.49414L8.875 6.57324L8.5 6.95801L8.58887 7.5L8.125 7.24414L7.66113 7.5L7.75 6.95801L7.375 6.57324L7.89355 6.49414L8.125 6ZM10 6L10.2314 6.49414L10.75 6.57324L10.375 6.95801L10.4639 7.5L10 7.24414L9.53613 7.5L9.625 6.95801L9.25 6.57324L9.76855 6.49414L10 6ZM2.125 10L2.35645 10.4941L2.875 10.5732L2.5 10.958L2.58887 11.5L2.125 11.2441L1.66113 11.5L1.75 10.958L1.375 10.5732L1.89355 10.4941L2.125 10ZM4.125 10L4.35645 10.4941L4.875 10.5732L4.5 10.958L4.58887 11.5L4.125 11.2441L3.66113 11.5L3.75 10.958L3.375 10.5732L3.89355 10.4941L4.125 10ZM6.125 10L6.35645 10.4941L6.875 10.5732L6.5 10.958L6.58887 11.5L6.125 11.2441L5.66113 11.5L5.75 10.958L5.375 10.5732L5.89355 10.4941L6.125 10ZM8.125 10L8.35645 10.4941L8.875 10.5732L8.5 10.958L8.58887 11.5L8.125 11.2441L7.66113 11.5L7.75 10.958L7.375 10.5732L7.89355 10.4941L8.125 10ZM10 10L10.2314 10.4941L10.75 10.5732L10.375 10.958L10.4639 11.5L10 11.2441L9.53613 11.5L9.625 10.958L9.25 10.5732L9.76855 10.4941L10 10ZM2.625 8L2.85645 8.49414L3.375 8.57324L3 8.95801L3.08887 9.5L2.625 9.24414L2.16113 9.5L2.25 8.95801L1.875 8.57324L2.39355 8.49414L2.625 8ZM4.625 8L4.85645 8.49414L5.375 8.57324L5 8.95801L5.08887 9.5L4.625 9.24414L4.16113 9.5L4.25 8.95801L3.875 8.57324L4.39355 8.49414L4.625 8ZM6.625 8L6.85645 8.49414L7.375 8.57324L7 8.95801L7.08887 9.5L6.625 9.24414L6.16113 9.5L6.25 8.95801L5.875 8.57324L6.39355 8.49414L6.625 8ZM8.625 8L8.85645 8.49414L9.375 8.57324L9 8.95801L9.08887 9.5L8.625 9.24414L8.16113 9.5L8.25 8.95801L7.875 8.57324L8.39355 8.49414L8.625 8ZM10.5 8L10.7314 8.49414L11.25 8.57324L10.875 8.95801L10.9639 9.5L10.5 9.24414L10.0361 9.5L10.125 8.95801L9.75 8.57324L10.2686 8.49414L10.5 8Z" fill="white"/>
</svg>
