<svg width="19" height="19" viewBox="0 0 19 19" fill="none" xmlns="http://www.w3.org/2000/svg">
<path d="M3.33065 2.21106L2.21118 3.33053L4.02336 5.1427C1.9121 6.84028 0.919077 9.03778 0.855143 9.18762L0.722168 9.49996L0.855143 9.8123C0.960435 10.0585 3.50558 15.8333 9.50008 15.8333C11.1359 15.8333 12.5062 15.3975 13.6471 14.7664L15.6695 16.7889L16.789 15.6694L3.33065 2.21106ZM9.50008 3.16663C8.54137 3.16663 7.67927 3.32545 6.89315 3.57483L8.19661 4.8783C8.60907 4.79992 9.04012 4.74996 9.50008 4.74996C13.7719 4.74996 15.9661 8.3822 16.5385 9.49687C16.3057 9.94257 15.7957 10.8078 14.9969 11.6786L16.1257 12.8073C17.4557 11.3681 18.0936 9.93184 18.145 9.8123L18.278 9.49996L18.145 9.18762C18.0397 8.94141 15.4946 3.16663 9.50008 3.16663ZM5.15519 6.27454L6.77873 7.89807C6.49804 8.36713 6.33341 8.91325 6.33341 9.49996C6.33341 11.2464 7.75366 12.6666 9.50008 12.6666C10.0868 12.6666 10.6329 12.502 11.102 12.2213L12.4673 13.5866C11.6173 13.9897 10.6308 14.25 9.50008 14.25C5.22825 14.25 3.03404 10.6177 2.46167 9.50305C2.79071 8.87292 3.6736 7.41219 5.15519 6.27454ZM9.66862 6.3503L12.6497 9.33142C12.5634 7.72196 11.2781 6.43659 9.66862 6.3503ZM7.9755 9.09485L9.90519 11.0245C9.77554 11.0594 9.64093 11.0833 9.50008 11.0833C8.62687 11.0833 7.91675 10.3732 7.91675 9.49996C7.91675 9.35911 7.94065 9.2245 7.9755 9.09485Z" fill="#999999"/>
</svg>
