<svg width="34" height="34" viewBox="0 0 34 34" fill="none" xmlns="http://www.w3.org/2000/svg">
<path d="M17 2.125C8.78454 2.125 2.125 8.78454 2.125 17C2.125 25.2155 8.78454 31.875 17 31.875C25.2155 31.875 31.875 25.2155 31.875 17C31.875 8.78454 25.2155 2.125 17 2.125Z" fill="url(#paint0_linear_228_2567)"/>
<path d="M19.0134 20.9426H22.8631L23.4677 17.032H19.0134V14.8944C19.0134 13.2701 19.5445 11.8294 21.0639 11.8294H23.5057V8.41712C23.0765 8.3591 22.1692 8.23267 20.4548 8.23267C16.8744 8.23267 14.7755 10.1233 14.7755 14.4311V17.0327H11.0947V20.9434H14.7748V31.692C15.5037 31.8006 16.2422 31.875 17.0001 31.875C17.6851 31.875 18.3537 31.8125 19.0134 31.7233V20.9426Z" fill="white"/>
<defs>
<linearGradient id="paint0_linear_228_2567" x1="6.58229" y1="6.58229" x2="29.3574" y2="29.3574" gradientUnits="userSpaceOnUse">
<stop stop-color="#2AA4F4"/>
<stop offset="1" stop-color="#007AD9"/>
</linearGradient>
</defs>
</svg>
