<svg width="50" height="51" viewBox="0 0 50 51" fill="none" xmlns="http://www.w3.org/2000/svg">
<path d="M44.4299 15.6477H39.0982V6.32128C39.0957 4.64502 38.4281 3.03778 37.242 1.85263C36.0562 0.667858 34.4486 0.0014056 32.7719 1.77334e-05H6.34699C4.666 -0.00395795 3.05229 0.660697 1.86168 1.84727C0.671172 3.03417 0.00148039 4.64539 0 6.32674V27.7202C0.00397568 29.3994 0.675141 31.0084 1.86529 32.1928C3.0558 33.3773 4.66776 34.0405 6.34699 34.0365H9.52316V41.2902C9.52244 41.815 9.83796 42.2881 10.3226 42.4891C10.8073 42.69 11.3654 42.5787 11.7358 42.2071L19.8703 34.0364H21.4248V37.4457C21.4263 38.9178 22.01 40.3299 23.0487 41.3737C24.0875 42.4171 25.4966 43.0073 26.9691 43.0156H33.3627L40.2383 49.8808C40.6088 50.2524 41.1668 50.3637 41.6515 50.1628C42.1361 49.9618 42.4517 49.4883 42.4509 48.9639V43.0156H44.4301C45.9069 43.0142 47.323 42.4268 48.3671 41.3827C49.4116 40.3386 49.9986 38.9225 50 37.4457V21.2179C49.9986 19.7411 49.4116 18.325 48.3671 17.2809C47.323 16.2367 45.9069 15.6494 44.4301 15.648L44.4299 15.6477ZM19.3308 31.4463C18.9871 31.4455 18.6571 31.5814 18.4139 31.8243L12.0926 38.1406V32.7416C12.0926 32.3979 11.956 32.0683 11.7131 31.8254C11.4703 31.5825 11.141 31.4463 10.7973 31.4463H6.34641C5.3539 31.4517 4.40016 31.0621 3.6954 30.3631C2.99063 29.6641 2.5927 28.7132 2.5902 27.7207V6.32719C2.5902 5.33256 2.98669 4.37946 3.69143 3.67794C4.39656 2.97679 5.35215 2.58569 6.34641 2.59115H32.7714C33.762 2.59115 34.7123 2.98474 35.413 3.68553C36.1135 4.38597 36.507 5.33617 36.507 6.32719V27.7207C36.5045 28.7096 36.1095 29.6572 35.4094 30.3555C34.709 31.0541 33.7603 31.4463 32.7714 31.4463L19.3308 31.4463ZM47.4083 37.4463C47.4083 38.2364 47.0946 38.9942 46.5358 39.5527C45.977 40.1115 45.2192 40.4255 44.429 40.4255H41.1545C40.4389 40.4255 39.8592 41.0053 39.8592 41.7209V45.8661L34.8126 40.8296H34.8122C34.569 40.5867 34.239 40.4508 33.8953 40.4515H26.9679C26.1688 40.4584 25.4001 40.144 24.8351 39.5787C24.2699 39.0138 23.9554 38.2454 23.9627 37.4463V34.037H32.7709C34.4464 34.0355 36.0534 33.3698 37.2392 32.1861C38.4249 31.0021 39.0933 29.3963 39.0972 27.7207V18.2388H44.429C45.219 18.2388 45.9769 18.5529 46.5357 19.1113C47.0945 19.67 47.4082 20.4279 47.4082 21.2181L47.4083 37.4463Z" fill="#C4C4C4"/>
<path d="M19.7105 6.7198C18.1723 6.67787 16.6822 7.25976 15.5795 8.33324C14.4768 9.40672 13.8551 10.8805 13.8555 12.4195C13.8555 13.1347 14.4356 13.7148 15.1508 13.7148C15.8664 13.7148 16.4462 13.1347 16.4462 12.4195C16.4433 11.5817 16.7819 10.779 17.3841 10.1968C17.9819 9.60513 18.7979 9.28816 19.6379 9.32105C20.5646 9.35466 21.4277 9.8003 21.9918 10.5362C22.556 11.2717 22.7623 12.2208 22.5545 13.1244C22.3467 14.0279 21.7467 14.7916 20.9177 15.2073C20.1327 15.5882 19.4687 16.1802 19.0003 16.9165C18.5315 17.653 18.2771 18.5053 18.2648 19.3781V19.4092V20.0207C18.2648 20.736 18.8449 21.316 19.5601 21.316C20.2758 21.316 20.8555 20.736 20.8555 20.0207V19.4298C20.8584 19.0289 20.9744 18.6372 21.1898 18.2988C21.4048 17.9609 21.7113 17.6902 22.0731 17.5178C23.6016 16.7603 24.7104 15.3575 25.0946 13.6957C25.4791 12.0335 25.0986 10.2867 24.058 8.93469C23.0175 7.583 21.4258 6.76832 19.721 6.71484L19.7105 6.7198Z" fill="#C4C4C4"/>
<path d="M19.5492 24.0938C18.8336 24.0938 18.2539 24.6735 18.2539 25.3891V25.8608V25.8604C18.2539 26.576 18.8336 27.1557 19.5492 27.1557C20.2645 27.1557 20.8446 26.576 20.8446 25.8604V25.3887V25.3891C20.8446 25.0454 20.708 24.7161 20.4651 24.4733C20.2222 24.23 19.8926 24.0938 19.5492 24.0938Z" fill="#C4C4C4"/>
</svg>
