<svg width="86" height="13" viewBox="0 0 86 13" fill="none" xmlns="http://www.w3.org/2000/svg">
<path d="M7 10.8437L10.4981 12.8958C11.0502 13.2199 11.7308 12.7388 11.5844 12.1287L10.6562 8.26104L13.7473 5.65765C14.2347 5.24803 13.9742 4.47023 13.332 4.41744L9.26261 4.08199L7.67101 0.431503C7.41938 -0.143834 6.58062 -0.143834 6.32899 0.431503L4.73739 4.08199L0.667987 4.41744C0.0258484 4.47023 -0.23472 5.24803 0.252728 5.65765L3.3438 8.26104L2.41565 12.1287C2.26921 12.7388 2.94985 13.2199 3.50192 12.8958L7 10.8437Z" fill="#FFCB00"/>
<path d="M25 10.8437L28.4981 12.8958C29.0502 13.2199 29.7308 12.7388 29.5844 12.1287L28.6562 8.26104L31.7473 5.65765C32.2347 5.24803 31.9742 4.47023 31.332 4.41744L27.2626 4.08199L25.671 0.431503C25.4194 -0.143834 24.5806 -0.143834 24.329 0.431503L22.7374 4.08199L18.668 4.41744C18.0258 4.47023 17.7653 5.24803 18.2527 5.65765L21.3438 8.26104L20.4157 12.1287C20.2692 12.7388 20.9498 13.2199 21.5019 12.8958L25 10.8437Z" fill="#FFCB00"/>
<path d="M43 10.8437L46.4981 12.8958C47.0502 13.2199 47.7308 12.7388 47.5844 12.1287L46.6562 8.26104L49.7473 5.65765C50.2347 5.24803 49.9742 4.47023 49.332 4.41744L45.2626 4.08199L43.671 0.431503C43.4194 -0.143834 42.5806 -0.143834 42.329 0.431503L40.7374 4.08199L36.668 4.41744C36.0258 4.47023 35.7653 5.24803 36.2527 5.65765L39.3438 8.26104L38.4157 12.1287C38.2692 12.7388 38.9498 13.2199 39.5019 12.8958L43 10.8437Z" fill="#FFCB00"/>
<path d="M61 10.8437L64.4981 12.8958C65.0502 13.2199 65.7308 12.7388 65.5844 12.1287L64.6562 8.26104L67.7473 5.65765C68.2347 5.24803 67.9742 4.47023 67.332 4.41744L63.2626 4.08199L61.671 0.431503C61.4194 -0.143834 60.5806 -0.143834 60.329 0.431503L58.7374 4.08199L54.668 4.41744C54.0258 4.47023 53.7653 5.24803 54.2527 5.65765L57.3438 8.26104L56.4157 12.1287C56.2692 12.7388 56.9498 13.2199 57.5019 12.8958L61 10.8437Z" fill="#FFCB00"/>
<path d="M79 10.8437L82.4981 12.8958C83.0502 13.2199 83.7308 12.7388 83.5844 12.1287L82.6562 8.26104L85.7473 5.65765C86.2347 5.24803 85.9742 4.47023 85.332 4.41744L81.2626 4.08199L79.671 0.431503C79.4194 -0.143834 78.5806 -0.143834 78.329 0.431503L76.7374 4.08199L72.668 4.41744C72.0258 4.47023 71.7653 5.24803 72.2527 5.65765L75.3438 8.26104L74.4157 12.1287C74.2692 12.7388 74.9498 13.2199 75.5019 12.8958L79 10.8437Z" fill="#FFCB00"/>
</svg>
