<?xml version="1.0" standalone="no"?>
<!DOCTYPE svg PUBLIC "-//W3C//DTD SVG 20010904//EN"
 "http://www.w3.org/TR/2001/REC-SVG-20010904/DTD/svg10.dtd">
<svg version="1.0" xmlns="http://www.w3.org/2000/svg"
 width="500.000000pt" height="500.000000pt" viewBox="0 0 500.000000 500.000000"
 preserveAspectRatio="xMidYMid meet">
<metadata>
Created by potrace 1.14, written by Peter Selinger 2001-2017
</metadata>
<g transform="translate(0.000000,500.000000) scale(0.100000,-0.100000)"
fill="#000000" stroke="none">
<path d="M2085 4879 c-4 -5 -1 -23 5 -40 13 -30 2 -59 -24 -59 -6 0 -22 -9
-36 -20 -38 -30 -51 -26 -38 11 13 39 1 53 -34 40 -37 -14 -86 -79 -105 -140
-10 -29 -23 -56 -30 -58 -7 -3 -13 -14 -13 -26 0 -20 -1 -20 -25 3 -20 19 -27
21 -40 10 -32 -26 -12 -93 43 -149 30 -29 33 -37 23 -57 -6 -13 -15 -24 -21
-24 -20 0 -356 -197 -396 -234 -8 -6 -28 -22 -45 -36 -88 -69 -204 -185 -270
-270 -24 -30 -47 -58 -52 -61 -5 -4 -14 -15 -20 -26 -7 -12 -32 -49 -57 -84
-24 -35 -45 -71 -47 -79 -1 -8 -7 -16 -12 -18 -6 -2 -11 -9 -11 -15 0 -16 -53
-93 -95 -140 -42 -46 -55 -90 -55 -179 0 -37 -5 -70 -11 -73 -24 -15 -62 -147
-74 -260 -2 -16 -7 -57 -11 -90 -10 -77 -10 -402 0 -480 5 -33 9 -78 11 -100
1 -22 5 -47 8 -55 3 -8 11 -37 18 -65 7 -27 26 -85 42 -128 16 -44 26 -82 21
-87 -5 -4 -26 -10 -46 -13 -20 -3 -52 -14 -71 -26 l-35 -21 -34 19 c-18 11
-49 23 -68 26 -35 7 -201 8 -230 1 -45 -9 -70 -19 -70 -27 0 -5 -5 -9 -11 -9
-16 0 -52 -48 -66 -88 -10 -26 -13 -199 -14 -706 0 -369 0 -701 0 -737 1 -102
36 -163 118 -206 28 -15 220 -20 267 -7 73 20 115 62 146 146 13 38 36 35 44
-4 10 -52 51 -104 100 -128 42 -20 59 -21 255 -21 167 0 217 3 247 16 35 14
41 14 98 -6 44 -16 89 -23 162 -25 88 -2 111 1 180 24 78 27 79 27 115 9 71
-35 339 -17 339 23 0 20 45 17 74 -4 46 -34 60 -37 180 -36 61 1 122 1 136 1
165 -2 401 0 422 4 15 3 39 10 52 15 18 7 36 5 62 -6 52 -22 494 -22 545 -1
29 12 40 12 74 0 47 -17 248 -19 290 -3 15 6 40 20 56 31 26 18 30 19 52 5 12
-9 53 -26 89 -40 56 -20 82 -23 170 -22 87 2 114 7 173 31 39 15 72 31 75 34
3 3 24 19 48 35 59 40 115 109 151 187 39 84 51 145 47 249 -2 78 -5 90 -34
131 -17 25 -34 59 -38 75 -4 16 -16 41 -27 55 l-19 26 37 48 c63 84 77 123 80
235 2 71 -14 139 -50 210 -21 42 -22 48 -9 80 17 39 25 95 28 190 3 71 -14
114 -62 161 -43 40 -87 51 -233 55 -166 4 -233 -11 -332 -75 l-38 -24 -27 20
c-41 30 -122 69 -160 78 -45 10 -32 19 31 21 29 1 90 11 137 21 86 20 110 21
165 9 59 -13 94 -14 109 -3 9 7 28 44 42 82 26 70 31 91 38 142 2 16 6 35 9
43 5 13 9 45 23 175 12 116 5 428 -12 520 -12 67 -33 161 -39 178 -4 9 -3 17
1 18 102 8 207 55 285 127 60 55 159 190 159 216 0 9 5 16 10 16 6 0 10 6 10
13 1 6 9 30 20 52 24 50 25 76 3 102 -18 19 -66 26 -88 12 -50 -33 -253 -131
-276 -134 -39 -5 -65 20 -123 115 -51 82 -54 95 -28 103 9 3 46 22 82 42 36
20 94 52 130 71 88 46 100 57 100 87 0 33 -47 70 -126 99 -83 31 -228 34 -315
8 -35 -11 -68 -20 -74 -20 -5 0 -20 18 -33 40 -23 41 -55 57 -89 46 -10 -4
-38 -30 -63 -60 -60 -70 -92 -95 -98 -75 -13 38 -285 269 -318 269 -6 0 -17 7
-24 14 -15 19 -267 143 -306 151 -6 2 -27 10 -45 19 -19 8 -52 22 -73 29 -36
12 -42 20 -67 82 -15 37 -40 81 -56 97 -30 32 -92 68 -117 68 -8 0 -18 9 -21
20 -12 37 -159 122 -275 160 -87 28 -206 33 -295 13 -95 -22 -151 -21 -202 5
-47 24 -69 27 -78 11z m945 -2417 c0 -5 18 -27 41 -50 l41 -40 -31 -46 c-17
-25 -38 -49 -46 -53 -8 -5 -26 -24 -40 -43 l-25 -34 -2 40 c-1 21 -3 55 -3 74
-1 19 5 58 13 85 9 28 17 53 18 58 1 4 2 9 3 12 2 9 31 5 31 -3z m-58 -294
c-3 -13 -13 -34 -23 -48 -34 -47 -32 -77 8 -115 20 -19 40 -35 44 -35 4 0 20
-11 35 -25 21 -19 23 -24 8 -19 -10 4 -16 4 -12 0 4 -5 23 -10 44 -12 20 -2
39 -6 42 -9 3 -2 11 0 19 6 7 6 13 8 13 3 0 -5 24 -10 53 -11 82 -3 139 -11
146 -20 6 -9 25 -15 54 -18 10 -1 22 -7 27 -14 4 -8 13 -10 19 -7 6 4 11 1 11
-6 0 -8 3 -9 8 -3 9 13 46 19 38 6 -4 -5 2 -9 14 -8 11 1 20 5 20 9 0 4 7 8
15 8 21 0 19 -17 -5 -30 -11 -6 -20 -8 -20 -5 0 3 -12 -6 -26 -20 l-26 -26
-27 23 c-14 13 -28 25 -31 28 -6 6 -44 25 -95 46 -30 12 -76 17 -180 18 -146
3 -174 9 -207 50 -10 12 -25 29 -34 38 -10 10 -18 38 -20 63 -3 41 0 49 36 85
22 23 40 47 40 55 0 8 4 15 9 15 5 0 7 -10 3 -22z m677 -292 c-14 -12 -69 -35
-69 -29 0 10 39 30 59 32 8 0 12 -1 10 -3z m-2359 -40 c61 -11 138 -49 177
-86 18 -16 34 -30 37 -30 3 0 29 16 56 36 103 74 261 106 391 79 31 -7 87 -26
124 -44 l67 -31 19 24 c36 46 77 53 299 51 185 -2 210 -4 253 -23 l48 -22 31
23 c29 21 37 22 251 21 184 0 231 -3 275 -18 28 -10 52 -22 52 -27 0 -5 5 -9
12 -9 7 0 29 -16 50 -37 l37 -36 33 25 c53 40 124 79 131 71 4 -3 7 -2 7 4 0
6 17 14 38 18 184 38 325 12 450 -82 33 -25 44 -23 72 8 37 41 166 80 277 83
174 5 254 -19 288 -84 26 -51 16 -222 -16 -280 l-21 -37 30 -47 c92 -145 64
-369 -58 -456 l-29 -21 34 -44 c18 -24 36 -59 40 -77 4 -18 11 -35 14 -38 4
-3 17 -19 29 -37 18 -25 23 -49 26 -107 6 -176 -79 -340 -222 -423 -26 -15
-49 -28 -52 -29 -3 0 -12 -4 -20 -7 -64 -29 -165 -38 -255 -24 -42 7 -133 44
-168 69 l-30 21 -16 -20 c-37 -47 -67 -56 -185 -58 -100 -2 -119 0 -157 20
l-44 22 -28 -21 c-26 -19 -42 -20 -269 -21 -217 -1 -244 1 -278 18 -34 18 -40
18 -71 4 -43 -19 -10 -17 -384 -21 -198 -1 -330 2 -345 8 -34 14 -70 46 -81
74 -9 24 -29 30 -29 10 0 -18 -40 -62 -70 -78 -15 -8 -66 -14 -130 -16 -84 -2
-114 2 -147 16 -24 11 -43 23 -43 29 0 5 -19 -1 -42 -14 -110 -61 -289 -66
-399 -10 l-46 23 -34 -22 c-32 -20 -47 -21 -244 -22 -222 -1 -248 4 -288 49
-21 25 -40 92 -34 124 2 13 1 23 -2 22 -3 0 -32 -6 -65 -13 -58 -12 -58 -12
-62 -50 -3 -41 -41 -98 -77 -118 -27 -14 -231 -19 -268 -6 -30 10 -71 52 -86
88 -6 16 -9 144 -7 360 4 396 4 304 0 749 -1 200 -1 374 2 387 5 28 61 94 82
97 8 2 20 5 25 8 9 5 158 5 237 1 16 -1 45 -17 67 -38 l40 -35 17 25 c9 14 22
26 29 26 7 0 15 5 17 12 3 8 62 12 196 13 106 1 195 4 197 6 7 7 199 3 245 -5z"/>
<path d="M987 1702 c-15 -3 -17 -11 -12 -60 11 -102 8 -97 51 -95 173 9 204 2
204 -49 0 -24 -53 -95 -97 -131 -52 -42 -155 -152 -171 -184 -13 -24 -18 -144
-8 -162 5 -7 77 -11 226 -11 l220 0 5 23 c4 13 5 48 3 78 l-3 54 -112 3 c-62
1 -113 6 -113 11 0 4 33 39 73 77 70 67 151 157 153 172 0 4 6 20 12 35 24 58
7 128 -45 183 -20 22 -37 38 -37 36 -1 -2 -14 2 -31 9 -29 12 -276 21 -318 11z"/>
<path d="M1788 1705 c-2 -2 -15 -6 -29 -8 -48 -9 -124 -52 -166 -93 -122 -123
-142 -320 -45 -454 31 -43 70 -80 83 -80 5 0 9 -3 9 -8 0 -10 78 -49 123 -61
64 -17 167 -7 228 21 169 78 254 258 203 429 -23 78 -115 199 -150 199 -8 0
-14 4 -14 8 0 16 -104 44 -171 48 -37 2 -68 1 -71 -1z m137 -206 c65 -31 101
-97 91 -170 -7 -53 -30 -89 -74 -118 -112 -73 -265 7 -266 139 0 124 132 204
249 149z"/>
<path d="M3737 1699 c-87 -20 -168 -80 -221 -163 -43 -69 -54 -110 -52 -197 3
-93 34 -165 102 -237 71 -74 147 -106 249 -107 80 0 165 19 165 38 0 6 3 7 7
4 7 -8 65 34 102 73 153 162 119 419 -71 541 -26 17 -65 36 -86 41 -50 14
-149 17 -195 7z m188 -213 c47 -36 68 -79 66 -139 -1 -57 -24 -101 -73 -137
-26 -20 -45 -25 -93 -25 -75 0 -125 30 -156 93 -40 80 -3 181 80 224 50 25
131 18 176 -16z"/>
<path d="M270 1355 l0 -345 89 0 c57 0 92 4 97 11 4 7 6 65 6 130 -1 66 2 120
6 120 20 4 219 5 228 1 8 -2 11 -42 10 -128 -1 -95 2 -125 12 -129 29 -11 170
-5 174 8 2 6 4 161 4 342 l-1 330 -91 3 c-108 3 -100 15 -99 -145 0 -67 -4
-114 -10 -116 -9 -3 -206 -1 -228 2 -4 0 -7 55 -6 120 0 66 -1 124 -5 129 -3
5 -46 10 -96 11 l-90 2 0 -346z"/>
<path d="M2268 1681 c-3 -13 -2 -600 1 -653 1 -17 17 -18 189 -18 238 1 283
15 320 100 38 86 35 158 -8 241 -16 30 -18 42 -9 74 21 74 -3 181 -51 226 -42
41 -69 46 -257 46 -159 1 -182 -1 -185 -16z m274 -140 c14 -2 38 -33 38 -50 0
-35 -25 -55 -74 -56 -25 -1 -47 1 -47 4 -1 3 -2 25 -3 49 -3 54 9 62 86 53z
m59 -283 c13 -21 10 -64 -5 -77 -13 -11 -66 -16 -122 -12 -19 1 -21 6 -19 49
2 26 4 50 4 53 2 12 134 0 142 -13z"/>
<path d="M2860 1355 c0 -250 3 -346 12 -351 15 -9 134 -11 158 -2 17 6 19 17
18 93 0 47 2 88 6 92 3 3 24 1 46 -6 46 -14 84 -59 95 -111 12 -63 16 -70 38
-69 12 0 46 -2 75 -3 28 -2 52 0 52 3 0 4 8 6 18 5 14 -1 17 7 16 56 -1 44 -9
70 -36 120 -36 64 -36 65 -17 89 51 65 69 145 55 239 -13 87 -69 161 -134 177
-20 5 -119 10 -219 11 l-183 1 0 -344z m333 149 c22 -29 22 -86 -1 -114 -13
-16 -31 -23 -68 -25 -28 -2 -56 0 -63 4 -16 10 -21 149 -6 156 6 2 35 3 65 3
44 -2 59 -6 73 -24z"/>
<path d="M4372 1685 c-101 -31 -146 -92 -144 -194 0 -45 7 -69 26 -99 34 -55
90 -98 143 -111 47 -12 93 -52 93 -81 0 -38 -25 -53 -90 -56 -34 -1 -72 1 -85
6 -34 13 -43 0 -50 -76 -8 -85 -11 -83 133 -82 193 2 270 53 273 184 2 58 -2
76 -24 122 -24 50 -93 100 -160 116 -41 10 -78 53 -72 84 2 14 9 30 15 36 12
12 127 14 173 4 21 -5 27 -3 28 10 0 9 2 26 5 37 9 47 11 84 4 96 -12 18 -214
21 -268 4z"/>
<path d="M4278 885 c-26 -5 -53 -16 -60 -22 -6 -7 -18 -13 -26 -13 -28 0 -126
-113 -145 -167 -78 -219 87 -441 320 -429 87 5 153 33 213 94 44 43 89 112 74
112 -4 0 -1 6 5 13 6 8 13 46 16 85 5 62 4 72 -12 79 -14 7 -239 10 -326 4
-15 -1 -17 -10 -16 -66 1 -36 6 -68 10 -71 5 -2 38 -5 74 -5 36 -1 65 -4 65
-9 0 -15 -61 -60 -83 -61 -12 -1 -31 -3 -42 -3 -29 -2 -80 19 -104 43 -27 27
-45 92 -37 134 6 31 64 105 85 108 8 1 33 6 46 10 24 6 86 -15 111 -38 14 -13
33 -22 40 -19 23 9 124 88 124 97 0 16 -73 79 -115 99 -69 33 -140 42 -217 25z"/>
<path d="M287 882 c-16 -3 -17 -30 -17 -308 l0 -304 84 0 84 0 1 33 c1 17 2
57 4 87 l2 55 85 1 c160 1 221 62 222 219 0 101 -32 165 -102 200 -29 15 -63
18 -191 19 -85 1 -163 0 -172 -2z m271 -158 c12 -8 22 -22 23 -32 2 -35 -3
-67 -12 -70 -5 -2 -7 -7 -4 -12 7 -12 -31 -23 -82 -25 -42 -1 -51 7 -43 40 1
6 2 30 1 54 -1 24 3 49 9 56 13 15 77 9 108 -11z"/>
<path d="M848 879 c-8 -5 -15 -449 -9 -586 1 -23 1 -23 181 -23 180 0 180 0
181 23 1 27 1 99 0 110 -1 4 -44 7 -96 7 l-95 0 -1 148 c0 81 0 186 0 235 0
60 -4 87 -12 88 -57 4 -141 3 -149 -2z"/>
<path d="M1280 882 c-15 -5 -13 -404 2 -456 30 -106 114 -167 235 -172 151 -6
249 61 279 190 10 43 10 427 0 433 -15 10 -148 8 -156 -2 -4 -5 -8 -98 -8
-206 0 -159 -3 -203 -16 -227 -27 -52 -102 -61 -145 -17 l-26 25 -1 211 c-1
115 -4 213 -8 216 -6 6 -139 10 -156 5z"/>
<path d="M1889 880 c-5 -19 -3 -593 2 -601 3 -6 41 -9 85 -7 l79 3 0 137 c0
75 3 134 6 132 5 -3 16 -38 24 -79 11 -51 19 -76 27 -81 6 -4 44 -7 86 -7 l76
0 12 37 c7 20 13 39 14 41 0 3 0 6 1 8 1 3 10 47 13 64 1 7 5 16 9 19 4 4 7
-56 7 -134 l0 -142 85 0 85 0 0 305 c0 298 0 305 -20 306 -130 6 -153 4 -170
-18 -9 -12 -39 -69 -66 -127 -27 -58 -52 -106 -55 -106 -4 0 -10 12 -14 27
-10 40 -84 185 -105 208 -16 16 -34 19 -100 20 -44 0 -81 -2 -81 -5z"/>
<path d="M2591 880 c-5 -3 -7 -140 -7 -305 l1 -300 175 -3 c143 -2 181 0 210
13 88 41 122 173 70 279 -17 36 -20 52 -13 74 19 56 1 154 -37 193 -45 47 -64
52 -231 53 -89 0 -164 -1 -168 -4z m263 -159 c12 -14 13 -21 3 -41 -10 -20
-21 -26 -59 -28 l-46 -3 2 42 c1 32 6 44 20 49 27 9 62 1 80 -19z m20 -230
c22 -19 20 -58 -4 -71 -12 -6 -42 -10 -68 -8 -46 3 -47 4 -49 38 -1 19 -1 40
1 45 5 15 101 12 120 -4z"/>
<path d="M3167 882 c-16 -3 -17 -31 -17 -308 l0 -304 85 0 85 0 0 33 c4 218 0
570 -5 575 -7 7 -117 10 -148 4z"/>
<path d="M3410 880 c-4 -3 -7 -140 -6 -305 l1 -300 83 -3 c73 -2 82 -1 83 15
0 10 1 82 2 160 1 78 5 144 8 147 6 6 129 -205 129 -222 0 -6 3 -12 8 -14 4
-1 17 -21 29 -43 l22 -40 88 0 88 0 0 288 c0 159 -3 296 -6 305 -5 14 -20 17
-85 16 l-79 0 -1 -147 c-1 -81 -4 -150 -6 -153 -3 -3 -15 10 -26 28 -11 18
-45 73 -76 122 -31 48 -56 90 -56 93 0 3 -9 17 -21 31 -19 24 -26 26 -96 27
-41 0 -78 -2 -83 -5z"/>
</g>
</svg>
