<svg xmlns="http://www.w3.org/2000/svg" xmlns:xlink="http://www.w3.org/1999/xlink" viewBox="0 0 4680 3120"><defs><style>.cls-1{fill:none;}.cls-19,.cls-2{fill:#fff;}.cls-2{opacity:0;}.cls-3{fill:#f0f0f8;}.cls-4{fill:#f7dae8;}.cls-5{fill:#e6a5c9;}.cls-6{fill:#c890b0;opacity:0.6;}.cls-7{fill:#facec9;}.cls-8{fill:#d64e9b;}.cls-9{fill:#bc1d85;}.cls-10{fill:#23799b;}.cls-11{fill:#0094ae;}.cls-12{fill:#5b0a39;}.cls-13{fill:#faba97;}.cls-14{fill:#f5927e;}.cls-15,.cls-20{fill:#f08372;}.cls-15{opacity:0.24;}.cls-16{fill:#de7360;}.cls-17{fill:#281c1c;}.cls-18{fill:#383939;}.cls-21{fill:#7d1848;}.cls-22{fill:#f7aa89;}.cls-23{fill:#fcba49;}.cls-24{fill:#f79833;}.cls-25{fill:#273c86;}.cls-26{fill:#0c9482;}.cls-27{fill:#0da79b;}.cls-28{fill:#3ebdac;}.cls-29{fill:#7dcab5;}.cls-30{fill:#f9cb11;}.cls-31{clip-path:url(#clip-path);}.cls-32{fill:#f69125;opacity:0.5;}.cls-33{fill:#fdc264;}.cls-34{fill:#485ca3;}.cls-35{fill:#a5aad5;}.cls-36{fill:#7a94cb;}.cls-37{fill:#e2dedd;}.cls-38{fill:#c0c8e5;}.cls-39{opacity:0.07;}.cls-40{fill:#a9b7dd;}.cls-41{opacity:0.05;}.cls-42{fill:#3d4463;}.cls-43{fill:#474e70;}.cls-44{fill:#555e83;}.cls-45{fill:#7383c1;}.cls-46{fill:#a2b0b3;}.cls-47{fill:#626c96;}.cls-48{fill:#028691;}.cls-49{opacity:0.1;}.cls-50{fill:#225151;}.cls-51{fill:#164342;}.cls-52{fill:#0c8178;}.cls-53{fill:#06b49b;}.cls-54{fill:#11536d;}.cls-55{opacity:0.06;}.cls-56{fill:#6b76a3;}.cls-57{fill:#2dbdbf;}.cls-58{fill:#ffe31b;}.cls-59{fill:#213074;}</style><clipPath id="clip-path"><path class="cls-1" d="M974.71,2275.52v189.81c0,57.88,47.6,105.23,105.77,105.23h116.63c58.17,0,105.77-47.35,105.77-105.23V2275.52Z"/></clipPath></defs><title>05</title><g id="_05" data-name="05"><rect id="_05-2" data-name="05" class="cls-2" width="4680" height="3120"/><path class="cls-3" d="M2180.09,530.7s.9-.61,2.63-1.75C2184,527.56,2184,527.15,2180.09,530.7Z"/><path class="cls-3" d="M2182.72,529c-1.73,1.14-2.63,1.75-2.63,1.75C2175.62,536.17,2180.72,531.23,2182.72,529Z"/><path class="cls-3" d="M3127.21,435.12C2653.12,231.2,2220.13,504.36,2182.72,529c-2,2.28-7.1,7.22-2.63,1.75-53.44,30.68-100.18,77.35-151.65,104.6-75.23,42.25-169,86.16-259.42,126.47-155.29,54.91-345.21,110.41-498.84,191.31-27.5,11.61-56,28.59-84.54,50-60.49,40.49-111.23,86.87-146.08,141.29-15.61,24.39-30.63,50.45-44.79,77.89-44.81,75.83-78.25,160.18-90.89,244.59-62.62,260.33-30.37,558.69,219.67,748.77,0,0,105.72,73,228.31,113.17,161.42,67.18,380.58,122.67,678.16,158.92C3291.16,2641.31,3640.07,2244.46,3720,1868.93S3623.26,648.49,3127.21,435.12Z"/><ellipse class="cls-4" cx="2325.34" cy="2588.42" rx="1499.28" ry="171.58"/><path class="cls-5" d="M3099.6,2509.38c-206.84-14.74-481.81-22.87-774.26-22.87s-567.41,8.13-774.25,22.87c-326.34,23.27-326.34,51-326.34,61.39s0,38.13,326.34,61.4c206.84,14.74,481.8,22.86,774.25,22.86s567.42-8.12,774.26-22.86c326.33-23.27,326.33-51,326.33-61.4S3425.93,2532.65,3099.6,2509.38Zm-7.52,110.81c-205.77,14.43-478.07,22.37-766.74,22.37s-561-7.94-766.74-22.37c-305.57-21.42-320.61-46.69-321.32-49.33.71-2.81,15.75-28.08,321.32-49.51,205.77-14.42,478.08-22.36,766.74-22.36s561,7.94,766.74,22.36c302.64,21.22,320.3,46.22,321.3,49.42C3412.38,2574,3394.72,2599,3092.08,2620.19Zm321.33-49.33Z"/><path class="cls-5" d="M3233.65,2473.07c-242.67-23.7-565.25-36.76-908.31-36.76s-665.63,13.06-908.3,36.76c-385.24,37.64-385.24,83.81-385.24,99s0,61.35,385.24,99c242.67,23.71,565.25,36.77,908.3,36.77S2991,2694.74,3233.65,2671c385.23-37.63,385.23-83.8,385.23-99S3618.88,2510.71,3233.65,2473.07Zm-2,177.28c-242,23.64-563.87,36.66-906.27,36.66s-664.25-13-906.26-36.66c-362.22-35.39-366.39-76.56-366.39-78.3s4.17-42.9,366.39-78.29c242-23.64,563.87-36.67,906.26-36.67s664.25,13,906.27,36.67c362.22,35.39,366.38,76.56,366.38,78.29S3593.83,2615,3231.61,2650.35Z"/><ellipse class="cls-6" cx="2996.51" cy="2560.63" rx="327" ry="46.3"/><polygon class="cls-7" points="2882.19 2394.93 2900.8 2478.94 2921.52 2520.11 2991.82 2488.93 2981.74 2404.01 2882.19 2394.93"/><path class="cls-8" d="M2752.56,2552.47c-11.63,19.79,1.75,23.86,20.3,26.9s136.52-9.25,178.31-12.29,56.18-7.8,57.84-15.69-3.75-20.68-3.75-20.68S2820.5,2552.59,2752.56,2552.47Z"/><path class="cls-9" d="M2990.2,2459.64l-16.64,15.26c-36.73,35.24-70.43-18.21-76.24-14.15-6.37,4.47-39.8,30-64.89,47.4s-57.65,30.43-66.51,31.52-13.77,7.23-14.8,17.53c7.89,10.09,56,7.49,82.67,6s65.59-13.66,89.43-17.62,72.56-11.84,82.21-14.32C3002.56,2486.1,2998.84,2457.29,2990.2,2459.64Z"/><path class="cls-8" d="M2894,2461.76a1.85,1.85,0,0,0-2.58-.32l-3.62,2.81a1.82,1.82,0,0,0-.32,2.56l8.93,11.18a1.83,1.83,0,0,0,2.57.32l3.62-2.8a1.82,1.82,0,0,0,.32-2.57Z"/><path class="cls-8" d="M2884.11,2469.16a1.84,1.84,0,0,0-2.58-.32l-3.62,2.81a1.82,1.82,0,0,0-.32,2.56l8.93,11.18a1.84,1.84,0,0,0,2.57.32l3.62-2.81a1.81,1.81,0,0,0,.32-2.56Z"/><path class="cls-8" d="M2874.62,2476.21a1.84,1.84,0,0,0-2.58-.32l-3.62,2.81a1.82,1.82,0,0,0-.32,2.56l8.93,11.18a1.83,1.83,0,0,0,2.57.32l3.62-2.81a1.82,1.82,0,0,0,.32-2.56Z"/><path class="cls-8" d="M2864.7,2483.61a1.83,1.83,0,0,0-2.57-.32l-3.62,2.8a1.82,1.82,0,0,0-.32,2.57l8.92,11.18a1.85,1.85,0,0,0,2.58.31l3.62-2.8a1.82,1.82,0,0,0,.32-2.56Z"/><path class="cls-8" d="M2855.21,2490.66a1.83,1.83,0,0,0-2.57-.32l-3.62,2.8a1.82,1.82,0,0,0-.32,2.57l8.92,11.18a1.85,1.85,0,0,0,2.58.32l3.62-2.81a1.82,1.82,0,0,0,.32-2.56Z"/><path class="cls-8" d="M2845.3,2498.05a1.85,1.85,0,0,0-2.58-.32l-3.62,2.81a1.82,1.82,0,0,0-.32,2.56l8.93,11.18a1.84,1.84,0,0,0,2.58.32l3.62-2.8a1.83,1.83,0,0,0,.32-2.57Z"/><polygon class="cls-7" points="3122.7 2480.05 3202.2 2481.34 3232.21 2271.06 3108.93 2271.06 3122.7 2480.05"/><path class="cls-9" d="M3201.73,2480.24l-78.13-3.11L3078.82,2552a4.8,4.8,0,0,0-.7,2.36l-.26,11.43c-.07,3.12,3,5.7,6.83,5.76L3238,2574.1c3.84.06,7-2.42,7.09-5.55l.29-12.65a4.83,4.83,0,0,0-.76-2.68Z"/><path class="cls-8" d="M3077.86,2565.83c-.07,3.12,3,5.7,6.83,5.76L3238,2574.1c3.84.06,7-2.42,7.09-5.55l.29-12.65-167.23-1.5Z"/><rect class="cls-8" x="3144.46" y="2489.5" width="41.32" height="8.55" rx="0.73"/><rect class="cls-8" x="3144.86" y="2503.75" width="41.32" height="8.55" rx="0.73"/><rect class="cls-8" x="3143.64" y="2520.03" width="41.32" height="8.55" rx="0.73"/><path class="cls-10" d="M2467.24,1538.24s-44,129-37.42,135.15,167.38,21.81,171.27,16.95,30.55-101.06,30.55-101.06l-94.55-41.67Z"/><path class="cls-11" d="M2467.24,1538.24s-13.07,38.24-23.8,73.83c-9.09,30.06-16.64,58.49-13.62,61.32,1.08,1,6.28,2.28,14.21,3.66,6.69-10.82,37.75-134.8,36.58-137Z"/><path class="cls-12" d="M2969,592.25c-13.06-30.61-127.69-16.5-127.69-16.5L2784,515.87s70.77-87-5.47-112.42-95.9,68.92-95.9,68.92c-210.07.2-171.42,178.6-171.42,178.6,13.48,16.67,36.55,1.68,36.55,1.68,27.15,84.89-45,128-57.07,152.91s24,37.17,38.36,34.55,20.83,4.11,20.83,4.11c67.37,42.94,115.91,3.5,148.86-4.4s117.24-53,117.24-53c68.08-10.7,129.94-72.12,134.53-82.66s10.48-37.13,7.83-45.47S2982.08,622.86,2969,592.25Z"/><path class="cls-12" d="M2732.44,503.64c-4.8-1.94-18.36,13.45-23.41,12.2-48.12-12.23-90.6-42.7-115.7-.15-102.28,33.84-66.54,83-40.69,129.26l25.32,64.2L2795,695.5c26.88.78,39-78,36-97.47C2822.77,544.13,2783.26,524.09,2732.44,503.64Z"/><path class="cls-13" d="M2655.51,716.78l15.8,47.66,30.58,88.92s14.07,7.61,59-8.79c37.27-13.61,53.67-38.86,53.67-38.86L2759.7,664.32Z"/><polygon class="cls-14" points="2699.7 847.41 2760.38 744.21 2671.32 764.45 2699.7 847.41"/><path class="cls-13" d="M2711.51,526.63,2611.23,553.2a71.64,71.64,0,0,0-51,87.68l12.34,45.89,21.2,79.08,1.8,6.79A22.69,22.69,0,0,0,2609.7,788l52.22,19.16a23,23,0,0,0,21.75-3.3l72.76-55.75a22.67,22.67,0,0,0,8.12-23.78Z"/><path class="cls-15" d="M2576.21,700.67l17,58.82c12.47-8.64,18-24.49,12.43-38.63C2600.77,708.65,2589,701.11,2576.21,700.67Z"/><path class="cls-16" d="M2643.21,719.65l-29.92-1.91-.82-74.35a3,3,0,0,0-6,.06l.86,77.12a3,3,0,0,0,2.8,2.93l32.68,2.09a2.9,2.9,0,0,0,1.22-.18,3,3,0,0,0-.83-5.76Z"/><ellipse class="cls-13" cx="2767.15" cy="668.91" rx="41.81" ry="41.59"/><path class="cls-17" d="M2560.13,642.28c5.46,6.94,32.33-6,28.65-13.34C2582.67,616.8,2551.48,631.29,2560.13,642.28Z"/><path class="cls-17" d="M2647.67,609.05c0,8.18,29.82,7.93,31.62-.7C2682.14,594.68,2647.73,595.46,2647.67,609.05Z"/><path class="cls-15" d="M2692.44,665A31.43,31.43,0,1,0,2733,683.69,31.37,31.37,0,0,0,2692.44,665Z"/><path class="cls-17" d="M2659.32,652.69c-4.43,1.17-6.37,8.25-4.34,15.81s7.25,12.73,11.68,11.56,6.36-8.26,4.34-15.82S2663.74,651.51,2659.32,652.69Z"/><path class="cls-17" d="M2585,672.94c-4.27,1.13-6.15,8-4.19,15.26s7,12.29,11.28,11.16,6.15-8,4.19-15.27S2589.22,671.8,2585,672.94Z"/><path class="cls-18" d="M2674.4,734.62a28.41,28.41,0,0,0-9.29,3,78.33,78.33,0,0,1-29,7.35,34.81,34.81,0,0,0-5.51.62,9.71,9.71,0,0,0-2.69,1.25c-3.44,2.57-3,7.26-1.34,10.67,2.88,6,8.65,10.51,15.5,12.92a32.51,32.51,0,0,0,13.69,1.55c10.69-1.09,20.83-7.62,25.89-16.21a25.83,25.83,0,0,0,1.94-4c1.82-5.15,1.85-11.1-1.92-15C2679.82,734.86,2677.32,734.31,2674.4,734.62Z"/><path class="cls-19" d="M2665.11,737.67a78.33,78.33,0,0,1-29,7.35,34.81,34.81,0,0,0-5.51.62c.25,2.3.87,4.59,2.66,6s4.28,1.58,6.58,1.56a65.4,65.4,0,0,0,27.89-6.55c2.42-1.11,4.83-2.52,6.1-4.88,1.18-2.1,1.1-4.67.58-7.14A28.41,28.41,0,0,0,2665.11,737.67Z"/><path class="cls-20" d="M2655.74,758.25c-5.75,2.51-11.25,6.71-13.68,12.23a32.51,32.51,0,0,0,13.69,1.55c10.69-1.09,20.83-7.62,25.89-16.21C2673.19,753.49,2663.83,754.65,2655.74,758.25Z"/><polygon class="cls-14" points="2757.8 682.38 2761.53 684.46 2778.21 654.82 2774.48 652.74 2757.8 682.38"/><polygon class="cls-14" points="2766.99 670.47 2780.09 677.46 2782.11 673.72 2769.01 666.73 2766.99 670.47"/><path class="cls-12" d="M2731.66,512.28c-21.74-14.89-48.51-23.1-74.78-20.92-22.61,1.9-44.22,11.36-62.47,24.8-30.14,22.25-29.84,38.22-37.31,74.77s-2.15,64.63,6.64,102.13c-13.5-103.93,23.16-123.17,23.16-123.17s12.76,25.51,62.25,22.41c24.08-1.51,39.51-7.63,47.65-2.42,10.18,6.46,11.62,35.57,21,43.18,8.09,6.51,7.71,2.65,17.7,5.79.47,1.66,7.47,17.18,11.23,31.81,12-33.37,51-66.87,35.31-98.67C2770.43,548.39,2753.47,527.16,2731.66,512.28Z"/><path class="cls-21" d="M2689.38,456.64s-8,6-6.75,15.73c0,0,67.09,2.48,101.37,43.5,0,0,18.3-22.73,23.58-39C2807.58,476.88,2716.32,484.24,2689.38,456.64Z"/><path class="cls-22" d="M2442.77,1222.78s-8.83,16.93-166.16,54.89c-65.16-11.39-144.85,6.86-161.28,13.29-16,6.26-15.24,11.59-15.19,11.85a74,74,0,0,1,9.32-3.68l-9.31,3.69h0c-7.1,3.42-14.52,8.84-7.12,14.5,3.52,7.07,166.41,14.3,166.41,14.3s237.59,19.7,299.44-44.27c48.38-39.81,76.41-164.43,76.41-164.43L2536.11,1099Z"/><path class="cls-22" d="M2109.46,1299.13a74,74,0,0,0-9.32,3.68h0Z"/><path class="cls-23" d="M2247.89,1272.49c-102.73-7-150.86,14.6-153.8,33.88-14,12.1-13,25.82-3.62,25.82s73-3.42,73-3.42-.11-.29-.29-.72a19.81,19.81,0,0,1-3.95-1.24c1-5.18,3.16-.63,3.95,1.24,17.9,3.88,61.74-3.4,61.8-1.24.13,5.21,45.39,9.35,100.56,7.64-17.62-14,.28-69.83,2-73.92C2327.6,1260.53,2283.51,1265,2247.89,1272.49Z"/><path class="cls-23" d="M2159.25,1326.81a19.81,19.81,0,0,0,3.95,1.24C2162.41,1326.18,2160.21,1321.63,2159.25,1326.81Z"/><path class="cls-24" d="M3264.62,1312.78c-23.78-198.86-116.23-243.53-116.23-243.53L2830.51,1184s-53.9,530.9-28.53,1234.07c107.78,28,221.67-11,221.67-11s-23.39-959.42-19.87-959.42,0,21,0,21,51.95,728,43.14,939.61c67.36,30.46,203.27-6.7,202.49-12.19C3244.41,2360.76,3288.39,1511.65,3264.62,1312.78Z"/><path class="cls-8" d="M2981.67,809.94c-97.74-67.16-170.12-36.42-170.12-36.42s-38.27,85.12-77.62,113.53c-38.87,7.4-28.44-29.56-37-36.06-5.89-1.68-81.14,25.72-81.14,25.72s-10.88,16.16-26.94,51.79S2527,1123.37,2490,1156.66c67.8,63.95,132.39,58.89,132.39,58.89L2697,1082.39s46.38,58.7,133.55,101.62c176.11,21.9,261.52-35.92,317.88-114.76C3122,1015.81,3079.41,877.1,2981.67,809.94Z"/><path class="cls-25" d="M3138.23,1043.41c-28.64,18.85-85.46,32.77-85.46,32.77s-7.78,41.86-16.1,77.49c-99.39,22.23-159.58.67-195.88-11.42,37.56-101,27.48-207.9,27.48-207.9s-33.18-98.1-15.57-167.76c-31,3.78-32.43,4.64-41.15,6.93,25.32,95.73-57.06,172.5-89.34,167.24s-44.24-86-44.24-86c-20.26,3.15-22.16,2.52-22.16,2.52s23.25,166.41,34,207.54,106.36,121.81,106.36,121.81-81,483.19-63.46,831.85c225.32,162.93,557.48,8.61,557.48,8.61l-141.76-957.85S3149.27,1057.86,3138.23,1043.41Z"/><path class="cls-22" d="M2880.7,1154.23s-22.45,83.66-53.27,121.33c-22.87,28-221.2,245.73-221.2,245.73l43.77,43.8s269-210.92,290.14-227.33,66.47-80.86,69.8-179C2961.86,1165.76,2926,1163.42,2880.7,1154.23Z"/><path class="cls-23" d="M2577.91,1529.71c-13.32,5.35-52.29,10.24-68.23,38.82s-38.73,59.46-48,71-15.26,27.73,1.72,25.29,31.27-24,31.27-24,17.58-6.94,7.58,8-34.31,36.48-30.77,38.31,43.63,11.76,59.25-12.68c4.27-1.59,27.11-16.31,37-18.68s20.15,2.35,30.58-11.23,25.94-44.18,57.37-71.45,74.07-59.22,74.07-59.22l-62.36-74.47S2591.22,1524.35,2577.91,1529.71Z"/><ellipse class="cls-6" cx="1137.09" cy="2564.24" rx="168.68" ry="26.18"/><path class="cls-26" d="M891.16,2000c-5.86,6.36,14.06,90.43,43.36,153.4s126.58,127.69,126.58,127.69l64.24.8C1081.72,2148,897,1993.68,891.16,2000Z"/><path class="cls-27" d="M1041.68,2213.1q-24.21-30.9-46.9-63c-30.72-42.53-60-86.1-91.17-128.87,11,24.08,23.78,47.23,37.29,69.93s28.05,44.8,43.38,66.39c7.7,10.76,15.78,21.27,23.87,31.76,8.52,10.17,16.65,20.64,25.82,30.29,17.9,19.53,37,38.53,59.51,52.8C1074.41,2254,1058,2233.6,1041.68,2213.1Z"/><path class="cls-26" d="M1115.6,1826.93c-13.47,3.5-34.57,118.94-28.71,210s57.43,243.85,57.43,243.85h22.27C1286.14,2104.94,1129.08,1823.43,1115.6,1826.93Z"/><path class="cls-27" d="M1159.13,2057.38c-1.87-17.68-4.17-35.29-6.54-52.89-2.75-17.54-5.27-35.12-8.58-52.56-6.23-35-13.79-69.67-23.12-104l13.2,105.44c4.34,35.1,8.72,70.16,12.21,105.29,3.8,35.09,7,70.24,8.88,105.44l.8,13.2.4,13.21c.18,8.8.88,17.64.64,26.44,0,8.8.16,17.65,0,26.49-.6,8.79-1,17.63-1.37,26.53,7.75-34.75,9.67-70.61,9.64-106.16.25-17.82-.88-35.57-1.61-53.35C1162.31,2092.78,1161,2075,1159.13,2057.38Z"/><path class="cls-28" d="M1305.27,1908c-7.82-1.71-80.08,90.34-135.17,176.63s-25.78,196.14-25.78,196.14h22.27C1281.45,2184.23,1313.09,1909.72,1305.27,1908Z"/><path class="cls-29" d="M1216,2094.13c-12,29-23.33,58.28-33.61,87.94s-19.48,59.73-26.82,90.28c12.45-28.88,24.24-57.84,36.24-86.73l36.1-86.58,35.85-86.73c11.88-29,23.63-58,34.73-87.39-15.93,27.13-30.25,55.08-43.9,83.34S1228.24,2065.21,1216,2094.13Z"/><path class="cls-27" d="M1428.53,2053.83c-10.55-6.3-85.56,27.3-159.39,68.51s-114.87,153.52-114.87,153.52l22.27,4.91C1389.86,2197.06,1439.08,2060.14,1428.53,2053.83Z"/><path class="cls-28" d="M1283.13,2159.69c-19.9,17-39.47,34.34-58,52.77a732.42,732.42,0,0,0-53.27,57.56c20.49-16.37,40.16-33.42,60.07-50.17l59.56-50.36c19.75-16.89,39.83-33.4,59.71-50.18s39.92-33.4,59.82-50.43c-23,12.69-44.76,27.29-66,42.56S1303.18,2142.89,1283.13,2159.69Z"/><path class="cls-28" d="M1307.38,2201.24c-71.49,10.49-114.54,76.58-114.54,76.58s12.57,14.37,81.72,2.95,147.68-90,145.34-95.86S1378.88,2190.74,1307.38,2201.24Z"/><path class="cls-29" d="M1300.15,2234c-15.21,6.38-30.44,12.76-45.45,19.72s-30,14.11-44.51,22.39a424.12,424.12,0,0,0,48.18-13.1c15.81-5.07,31.31-11,46.7-17.15,15.3-6.38,30.49-13.08,45.26-20.74s29.38-15.77,42.74-25.9c-15.85,5.39-31.38,10.9-46.83,16.75S1315.47,2227.82,1300.15,2234Z"/><path class="cls-27" d="M986.09,1899.83c-8.2-.57,2.35,97.34,28.13,202.6s104.31,172.27,104.31,172.27l30,1.38C1150.42,2078.06,994.3,1900.39,986.09,1899.83Z"/><path class="cls-28" d="M1062.14,2095.63l-33-85.46c-11-28.5-22.23-57-34.13-85.25,6.82,29.93,15.4,59.36,24.66,88.55s19.46,58.11,30.41,86.75c11.17,28.55,22.79,57,36.12,84.64s27.49,55,44.77,80.49c-12.56-28-24.1-56.21-35.54-84.49S1073.05,2124.12,1062.14,2095.63Z"/><path class="cls-28" d="M985.43,2201.24c-71.5-10.5-110.18-22.16-112.52-16.33s76.18,84.44,145.33,95.86,81.72-2.95,81.72-2.95S1056.92,2211.73,985.43,2201.24Z"/><path class="cls-29" d="M992.65,2234c-15.31-6.15-30.61-12.3-46.08-18s-31-11.36-46.83-16.75c13.36,10.13,28,18.3,42.73,25.9s30,14.36,45.27,20.74c15.39,6.18,30.88,12.08,46.69,17.15a424.69,424.69,0,0,0,48.18,13.1c-14.55-8.28-29.47-15.5-44.51-22.39S1007.87,2240.35,992.65,2234Z"/><path class="cls-30" d="M974.71,2465.33c0,57.88,47.6,105.23,105.77,105.23h116.63c58.17,0,105.77-47.35,105.77-105.23V2275.51H974.71Z"/><g class="cls-31"><path class="cls-19" d="M1322.07,2354.56l-31.71,35.18-31.71-35.18c-3.06-3.39-9.41-3.39-12.47,0l-31.68,35.17-31.65-35.17c-3.06-3.39-9.42-3.39-12.47,0q-15.83,17.59-31.67,35.17-15.82-17.58-31.66-35.17c-3.06-3.39-9.42-3.39-12.47,0q-15.82,17.59-31.66,35.17-15.83-17.58-31.66-35.17c-3.06-3.39-9.42-3.39-12.47,0l-31.64,35.17-31.63-35.17c-7.58-8.43-20,4-12.46,12.4l37.86,42.1c3.05,3.39,9.41,3.39,12.46,0l31.65-35.17q15.83,17.58,31.66,35.17c3,3.39,9.41,3.39,12.46,0l31.67-35.17,31.66,35.17c3,3.39,9.41,3.39,12.46,0l31.67-35.17q15.83,17.58,31.66,35.17c3,3.39,9.41,3.39,12.46,0l31.69-35.18,31.71,35.18c3.06,3.39,9.41,3.39,12.46,0l38-42.1C1342.09,2358.58,1329.66,2346.14,1322.07,2354.56Z"/></g><path class="cls-32" d="M1227.87,2465.33c0,57.88-47.6,105.23-105.77,105.23h75c58.17,0,105.77-47.35,105.77-105.23V2275.51h-75Z"/><polygon class="cls-19" points="1591.96 1212.31 1579.75 1269.06 1535.05 1281.21 1579.75 1293.36 1591.96 1350.12 1604.17 1293.36 1648.87 1281.21 1604.17 1269.06 1591.96 1212.31"/><polygon class="cls-19" points="1526.9 964.36 1518.34 1004.13 1487.02 1012.65 1518.34 1021.16 1526.9 1060.93 1535.46 1021.16 1566.78 1012.65 1535.46 1004.13 1526.9 964.36"/><polygon class="cls-19" points="1322.84 1075.8 1303.19 1167.13 1231.27 1186.67 1303.19 1206.22 1322.84 1297.55 1342.49 1206.22 1414.42 1186.67 1342.49 1167.13 1322.84 1075.8"/><polygon class="cls-24" points="1746.13 867.75 1774.3 991.45 2090.96 973.68 2092.83 847.77 2079.62 845.78 1746.13 867.75"/><polygon class="cls-33" points="1746.13 867.75 1749.83 988.33 2081.81 973.43 2079.64 846.58 1746.13 867.75"/><rect class="cls-25" x="1950.29" y="995.84" width="25.63" height="1273.04" transform="translate(-93.08 118.93) rotate(-3.39)"/><path class="cls-25" d="M1947.18,990.89l-39,2.29s-38.23,28.58,18.51,24.66S1947.18,990.89,1947.18,990.89Z"/><path class="cls-25" d="M2090.72,958.53,1753.5,978.3a4.86,4.86,0,0,0-4.58,5.13l1.31,22.14a4.86,4.86,0,0,0,5.15,4.55l337.23-19.77a4.86,4.86,0,0,0,4.57-5.13l-1.31-22.14A4.86,4.86,0,0,0,2090.72,958.53Z"/><polygon class="cls-25" points="1749.21 988.35 2096.89 980.3 2098.64 917.21 1745.02 935.67 1749.21 988.35"/><polygon class="cls-34" points="1848.6 1180.55 1847 1218.56 1879.44 1218.56 1879.04 1180.55 1848.6 1180.55"/><polygon class="cls-35" points="1799.54 1229.04 1804.35 1231.43 1841.79 1192.98 1831.58 1188.6 1799.54 1229.04"/><path class="cls-35" d="M1843.79,1209.72c-5.6,97.62-38.44,126.39-38.44,133v46.76c0,14.28-2.78,25.85,11.57,25.85h68.17c14.35,0,16.37-11.57,16.37-25.85v-54.11c0-4-19.22-125.63-19.22-125.63Z"/><path class="cls-36" d="M1842.47,1260.72c-9.47,55.57-28.71,74.07-28.71,79v42.08c0,12.86-2.4,23.27,10,23.27h58.78c12.38,0,14.13-10.41,14.13-23.27v-48.69c0-2.12-5.73-40.81-10.45-72.35Z"/><path class="cls-34" d="M1891.85,1161.91h-62.47l-19.23,9.56v12l27.34,11.95h56.92a7.6,7.6,0,0,0,7-10.52Z"/><polygon class="cls-37" points="1795.9 1186.81 1815.01 1190.59 1815.01 1164.89 1795.9 1169.87 1795.9 1186.81"/><polygon class="cls-33" points="1795.74 1180.55 1794.13 1218.56 1826.57 1218.56 1826.17 1180.55 1795.74 1180.55"/><polygon class="cls-38" points="1746.68 1229.04 1751.48 1231.43 1788.93 1192.98 1778.72 1188.6 1746.68 1229.04"/><path class="cls-38" d="M1790.93,1209.72c-5.61,97.62-38.45,126.39-38.45,133v46.76c0,14.28-2.78,25.85,11.57,25.85h68.17c14.36,0,16.38-11.57,16.38-25.85v-54.11c0-4-19.22-125.63-19.22-125.63Z"/><path class="cls-33" d="M1789.6,1260.72c-9.46,55.57-28.71,74.07-28.71,79v42.08c0,12.86-2.4,23.27,10,23.27h58.79c12.38,0,14.12-10.41,14.12-23.27v-48.69c0-2.12-5.72-40.81-10.45-72.35Z"/><path class="cls-33" d="M1839,1161.91h-62.48l-19.22,9.56v12l27.33,11.95h56.93a7.6,7.6,0,0,0,7-10.52Z"/><polygon class="cls-38" points="1738.59 1186.81 1767.25 1190.59 1767.25 1164.89 1738.59 1169.87 1738.59 1186.81"/><rect class="cls-35" x="1497" y="1263.56" width="1273.05" height="25.63" transform="translate(694.98 3304.11) rotate(-85.54)"/><path class="cls-11" d="M2390.72,661.46s18.91,13.46,26.15,4.92-64-24.39-64-24.39,18.14.69,19.25-6.42-52.9-9.75-52.9-9.75,19.53-3.51,11.67-11.51-40.74-2.89-40.74-2.89,17.43-16.39,5.62-19.62-32.57.68-34.37.55,7.88-17.42-2.1-21.12-21.63,3.85-21.63,3.85,3.32-17.14-4.34-19.48-29,.94-29,.94,3.6-12.33-3.49-16.43-20.82,2.72-20.82,2.72-4-11.67-15.11-16.06-15.75,1.28-15.75,1.28-13.44-14.14-23.54-16-7.75,7.24-7.75,7.24-8.86-10.82-20.2-12.22-8.34,7.1-8.34,7.1-14.34-10-21.62-9.26,1.69,7.85,1.69,7.85-71.15,20.2-65.8,29.56,46.18-5.7,46.18-5.7-68.57,40.66-60.86,50.8,48.59-27.71,48.59-27.71-58.83,69.66-47.87,76.36,49-45.12,49-45.12-41.33,64-26.74,70.52,38.73-61.28,38.73-61.28-18.54,82-3.77,86c8.28,2.27,13.69-21.49,16.85-42.8-2.34,27.15-3.42,62.32,6.2,65.72,6.21,2.2,10.18-10.74,12.71-27.27-.8,24.63.24,47.53,6.9,47.66,7.41.15,12.13-24.18,15-47.89-1.53,25.77-1.83,53.59,3.73,55.81,4.77,1.9,9-15.64,12.12-35.4-2.11,27.11-2,55.42,7.33,58.22,11.8,3.54,15.42-36.45,16.51-65.24-.15,34.73,1,89.25,10,89.89,7.3.52,11.27-29.84,13.37-57.06-1,32.22-.35,71.41,8.42,72.39s11.77-32.88,12.82-61.28c.45,31,3.31,69.86,14.78,71,6.23.64,9.64-9.41,11.42-23.21,1.65,20.87,5.53,38.46,13.88,40,7.1,1.3,10.28-9.47,11.37-24.4,2.58,14.43,6.69,25.35,13.19,26.18,14.9,1.91,13.3-51.24,11.39-79.64,2.74,30.88,9.26,92.15,17.85,91.87,9.18-.31,9.36-57.93,9.06-81,.63,26.43,3.3,99.75,13.83,97.55,7.28-1.52,12.57-31.87,15.53-57.46-1.14,29.22-.81,65.73,6.26,64.4,11.6-2.17,16.39-95.9,16.39-95.9s-2.48,86.71,9.76,84,12.36-96.65,12.36-96.65,1.25,83.24,17.94,77.23c8.14-2.92,8.74-24.64,7.23-46.11,2.76,13.27,6.69,23.46,12.12,19.93,11-7.19,1.52-70-2.09-90,3.93,17,16.19,63.19,23.15,56.73,8.38-7.79-18.66-84.1-18.66-84.1s20.49,41.69,27.86,31.43S2390.72,661.46,2390.72,661.46Z"/><path class="cls-39" d="M2003.6,542.27c4.67,8.19,36.43-2.28,44.37-5.06-.12-6,0-12,.37-18C2027.83,525.94,2000.19,536.3,2003.6,542.27Z"/><path class="cls-10" d="M2276.67,721.21c-54.39-5.68-104.44-32-149.09-62.07-25.43-17.13-49-37.89-64.69-64.43-10.86-18.37-14.45-37.46-14.91-57.06-10.75,6.5-66,40.56-59.06,49.72,7.7,10.13,48.59-27.71,48.59-27.71s-58.83,69.66-47.87,76.36,49-45.12,49-45.12-41.33,64-26.74,70.52,38.73-61.28,38.73-61.28-18.54,82-3.77,86c8.28,2.27,13.69-21.49,16.85-42.8-2.34,27.15-3.42,62.32,6.2,65.72,6.21,2.2,10.18-10.74,12.71-27.27-.8,24.63.24,47.53,6.9,47.66,7.41.15,12.13-24.18,15-47.89-1.53,25.77-1.83,53.59,3.73,55.81,4.77,1.9,9-15.64,12.12-35.4-2.11,27.11-2,55.42,7.33,58.22,11.8,3.54,15.42-36.45,16.51-65.24-.15,34.73,1,89.25,10,89.89,7.3.52,11.27-29.84,13.37-57.06-1,32.22-.35,71.41,8.42,72.39s11.77-32.88,12.82-61.28c.45,31,3.31,69.86,14.78,71,6.23.64,9.64-9.41,11.42-23.21,1.65,20.87,5.53,38.46,13.88,40,7.1,1.3,10.28-9.47,11.37-24.4,2.58,14.43,6.69,25.35,13.19,26.18,14.9,1.91,13.3-51.24,11.39-79.64,2.74,30.88,9.26,92.15,17.85,91.87,9.18-.31,9.36-57.93,9.06-81,.63,26.43,3.3,99.75,13.83,97.55,7.28-1.52,12.57-31.87,15.53-57.46-1.14,29.22-.81,65.73,6.26,64.4,11.6-2.17,16.39-95.9,16.39-95.9s-2.48,86.71,9.76,84,12.36-96.65,12.36-96.65,1.25,83.24,17.94,77.23c8.14-2.92,8.74-24.64,7.23-46.11,2.76,13.27,6.69,23.46,12.12,19.93,11-7.19,1.52-70-2.09-90,3.93,17,16.19,63.19,23.15,56.73,8.38-7.79-18.66-84.1-18.66-84.1s20.49,41.69,27.86,31.43c5.45-7.6-20.6-36.5-34.48-51C2374.35,708.75,2322.73,726,2276.67,721.21Z"/><polygon class="cls-8" points="2040.83 1209.06 2039.23 1237.57 2071.67 1237.57 2071.27 1209.06 2040.83 1209.06"/><polygon class="cls-38" points="1991.77 1248.17 1996.58 1250.56 2034.02 1212.11 2023.81 1207.73 1991.77 1248.17"/><path class="cls-40" d="M2091.27,1295.73a26.13,26.13,0,0,0-3.44-5.17c-8.29-9.67-13.36-21.66-13.36-34.38v-27.34H2036s-3.61,38.65-21.31,60.72l-24.48,25.85a25.75,25.75,0,0,0-7.08,17.73v46.76a25.92,25.92,0,0,0,26,25.85h68.17a25.92,25.92,0,0,0,26-25.85v-54.11a25.68,25.68,0,0,0-2.75-11.56Z"/><path class="cls-41" d="M2091.27,1295.73a26.13,26.13,0,0,0-3.44-5.17c-8.29-9.67-13.36-21.66-13.36-34.38v-27.34h-18.39c25.31,35.83,24.22,90-5.85,125.06-16.6,19.34-41.42,30.95-66.62,30.45a25.92,25.92,0,0,0,25.54,21.4h68.17a25.92,25.92,0,0,0,26-25.85v-54.11a25.68,25.68,0,0,0-2.75-11.56Z"/><polygon class="cls-8" points="1996.49 1190.59 1996.49 1202.55 2025.96 1214.8 2082.46 1214.5 2082.46 1180.55 2021.61 1180.55 1996.49 1190.59"/><polygon class="cls-38" points="1986.94 1205.93 1996.49 1209.72 1996.49 1184.02 1986.94 1189 1986.94 1205.93"/><polygon class="cls-8" points="2002.38 1370.61 2082.46 1370.61 2082.46 1313.59 1997.58 1313.59 2002.38 1370.61"/><path class="cls-42" d="M2684.24,2565.5a13.78,13.78,0,0,0,11.94,6.88H2703a9.19,9.19,0,0,0,9.21-9.16v-86.46l-76.89,4Z"/><polygon class="cls-40" points="1580.68 2276.5 1698.42 2436.49 2186.27 2449.26 2205.04 2282.52 1941.83 2273.23 1580.68 2276.5"/><polygon class="cls-40" points="1596.3 2456.83 1821.27 2446.87 1829.38 2293.87 1580.68 2276.5 1596.3 2456.83"/><path class="cls-43" d="M2684.05,2494.55c-28.06,1-49.84,28.69-48.66,61.85s24.89,59.25,52.94,58.26,49.84-28.68,48.66-61.85S2712.1,2493.56,2684.05,2494.55Z"/><polygon class="cls-43" points="2673.16 2494.94 2662.28 2495.32 2666.56 2615.43 2688.33 2614.66 2684.05 2494.55 2673.16 2494.94"/><path class="cls-44" d="M2662.28,2495.32c-28.06,1-49.84,28.68-48.66,61.85s24.89,59.25,52.94,58.26,49.84-28.68,48.66-61.85S2690.33,2494.33,2662.28,2495.32Z"/><ellipse class="cls-45" cx="2664.42" cy="2555.38" rx="42.74" ry="50.53" transform="translate(-91.62 99.1) rotate(-2.09)"/><path class="cls-42" d="M2663.27,2523.29c-15,.53-26.63,15.32-26,33.05s13.3,31.65,28.29,31.13,26.64-15.33,26-33S2678.27,2522.76,2663.27,2523.29Z"/><path class="cls-46" d="M2664.19,2548.94c-3,.1-5.35,3.07-5.22,6.63s2.67,6.35,5.68,6.25,5.34-3.08,5.22-6.64S2667.2,2548.83,2664.19,2548.94Z"/><path class="cls-44" d="M2652,2565.5a13.75,13.75,0,0,0,11.93,6.88h6.85a9.18,9.18,0,0,0,9.21-9.16v-86.46l-76.89,4Z"/><path class="cls-42" d="M2664.42,2545.94c-4,0-7.17,4.23-7.17,9.44s3.21,9.43,7.17,9.43,7.17-4.22,7.17-9.43S2668.38,2545.94,2664.42,2545.94Z"/><path class="cls-42" d="M2367.06,2565.5a13.77,13.77,0,0,0,11.94,6.88h6.85a9.19,9.19,0,0,0,9.21-9.16v-86.46l-76.9,4Z"/><path class="cls-43" d="M2366.86,2494.55c-28.05,1-49.83,28.69-48.65,61.85s24.89,59.25,52.94,58.26,49.84-28.68,48.65-61.85S2394.92,2493.56,2366.86,2494.55Z"/><polygon class="cls-43" points="2355.98 2494.94 2345.09 2495.32 2349.38 2615.43 2371.15 2614.66 2366.86 2494.55 2355.98 2494.94"/><path class="cls-44" d="M2345.09,2495.32c-28.05,1-49.83,28.68-48.65,61.85s24.89,59.25,52.94,58.26,49.84-28.68,48.65-61.85S2373.15,2494.33,2345.09,2495.32Z"/><path class="cls-45" d="M2345.43,2504.88c-23.59.83-41.91,24.12-40.91,52s20.93,49.82,44.52,49,41.91-24.12,40.91-52S2369,2504,2345.43,2504.88Z"/><path class="cls-42" d="M2346.09,2523.29c-15,.53-26.63,15.32-26,33.05s13.3,31.65,28.29,31.13,26.63-15.33,26-33S2361.08,2522.76,2346.09,2523.29Z"/><path class="cls-46" d="M2347,2548.94c-3,.1-5.35,3.07-5.22,6.63s2.67,6.35,5.68,6.25,5.34-3.08,5.21-6.64S2350,2548.83,2347,2548.94Z"/><path class="cls-44" d="M2334.82,2565.5a13.78,13.78,0,0,0,11.94,6.88h6.85a9.18,9.18,0,0,0,9.21-9.16v-86.46l-76.89,4Z"/><path class="cls-43" d="M2015.47,2369.9c-57.07,2-101.37,58.34-99,125.8s50.62,120.52,107.69,118.5,101.37-58.34,99-125.8S2072.53,2367.89,2015.47,2369.9Z"/><polygon class="cls-43" points="1993.33 2370.69 1971.19 2371.47 1979.91 2615.76 2024.19 2614.2 2015.47 2369.9 1993.33 2370.69"/><path class="cls-44" d="M1971.19,2371.47c-57.07,2-101.37,58.34-99,125.8s50.62,120.51,107.69,118.5,101.37-58.34,99-125.8S2028.25,2369.45,1971.19,2371.47Z"/><path class="cls-45" d="M1971.88,2390.9c-48,1.69-85.25,49.06-83.22,105.79s42.57,101.34,90.55,99.65,85.25-49.06,83.22-105.79S2019.87,2389.2,1971.88,2390.9Z"/><path class="cls-42" d="M1973.22,2428.35c-30.5,1.07-54.17,31.17-52.89,67.22s27.05,64.4,57.55,63.32,54.17-31.17,52.88-67.22S2003.71,2427.27,1973.22,2428.35Z"/><path class="cls-46" d="M1975.08,2480.52c-6.12.22-10.87,6.26-10.61,13.49s5.43,12.92,11.54,12.7,10.87-6.25,10.62-13.48S1981.2,2480.3,1975.08,2480.52Z"/><path class="cls-44" d="M1993.58,2340.54c-14.41.34-40.89-.08-78.67,12.58-8.94,3,23.52,11.2,25.62,19.76,10.25-.3,20.5-.38,30.77,0a30.16,30.16,0,0,1,18.7,7.35c1.71-.14,3.4-.32,5.13-.4s3.77-.12,5.64-.12c70.13,0,124.47,57.88,127.74,131.62v.18c.4,9.3-22.8,16.75-13.46,16.75h35.49a17.27,17.27,0,0,0,17.36-17.77l0-.7C2163.65,2414.8,2088.39,2338.28,1993.58,2340.54Z"/><rect class="cls-44" x="1606.16" y="2480.51" width="385.36" height="47.71" rx="1.83"/><path class="cls-47" d="M1958.56,2344.91a160.3,160.3,0,0,0-41.45,7.33,17.33,17.33,0,0,0-9.49,25.69l.19.3a17.27,17.27,0,0,0,19.85,7.35,125.18,125.18,0,0,1,32.45-5.78c1.88-.08,3.77-.12,5.64-.12,70.13,0,128.84,57.88,132.11,131.62a1.09,1.09,0,0,1,0,.18,17.3,17.3,0,0,0,17.18,16.75h.47a17.27,17.27,0,0,0,17.36-17.77l0-.7C2128.63,2414.8,2050.34,2340.84,1958.56,2344.91Z"/><rect class="cls-48" x="2188.38" y="1464.72" width="42.31" height="970.6"/><polygon class="cls-45" points="1701.87 2261.6 1984.17 2254.41 2027.1 1397.17 1672.02 1397.38 1701.87 2261.6"/><path class="cls-40" d="M1441.49,2229.14A34.44,34.44,0,0,0,1476,2261.6h225.92A25.38,25.38,0,0,0,1727.3,2237l23.83-834.45L1396.05,1401Z"/><polygon class="cls-49" points="1672.09 1402.21 1396.05 1400.97 1404.18 1549.18 1759.19 1574.53 2014.74 1649.91 2027.1 1402.56 1672.02 1400.97 1672.09 1402.21"/><polygon class="cls-45" points="1981.56 1592.22 2016.8 1699.6 2143.36 1695.68 2154.57 1636.05 2034.42 1595.02 1981.56 1592.22"/><polygon class="cls-47" points="2016.8 1698.2 2143.36 1694.28 2154.57 1636.05 2039.23 1637.64 2016.8 1698.2"/><polygon class="cls-38" points="1963.94 1698.2 2090.49 1694.28 2101.7 1636.05 1981.56 1592.22 1963.94 1698.2"/><rect class="cls-44" x="2167.23" y="1464.72" width="42.31" height="970.6"/><path class="cls-45" d="M1583,1493.6c7.61,13.41,19.67,21.32,32.5,21.32h636.41v-100.4H1538Z"/><path class="cls-9" d="M2172.68,1684.8l-351.41-1.17,16.89,256.51h318.69c4.45,0,8.15-4.47,8.47-10.25l20.92-226.12C2186.8,1693.54,2180.57,1684.83,2172.68,1684.8Z"/><path class="cls-8" d="M1636.59,1924.86a17.19,17.19,0,0,0,17.18,16h244.68a14.06,14.06,0,0,0,14-12.79l21.4-242.68L1620.75,1684Z"/><rect class="cls-9" x="1807.75" y="1673.87" width="392.05" height="40.81" rx="1.57"/><rect class="cls-8" x="1610.19" y="1673.87" width="339.18" height="40.81" rx="1.57"/><rect class="cls-47" x="1850.79" y="1414.52" width="401.07" height="100.41"/><rect class="cls-44" x="1576.66" y="1921.33" width="632.88" height="66.94" rx="32.71"/><rect class="cls-48" x="1829.63" y="1464.72" width="42.32" height="970.6"/><path class="cls-44" d="M2277.61,1376.27H1797.43c-11.13,0-20.24,11.83-20.24,26.29s9.11,26.3,20.24,26.3h480.18c11.13,0,20.24-11.83,20.24-26.3S2288.74,1376.27,2277.61,1376.27Z"/><path class="cls-47" d="M1872.86,1376.27H1392.68c-11.13,0-20.24,11.83-20.24,26.29s9.11,26.3,20.24,26.3h480.18c11.13,0,20.24-11.83,20.24-26.3S1884,1376.27,1872.86,1376.27Z"/><rect class="cls-45" x="1808.47" y="1464.72" width="42.32" height="970.6"/><rect class="cls-47" x="1850.79" y="1464.72" width="42.31" height="970.6"/><rect class="cls-47" x="2209.54" y="1464.72" width="42.31" height="970.6"/><path class="cls-50" d="M2394.9,2056.36c-20.58,21.35-46.43,33.11-72.78,33.11H1902.87l147.77-146-13.36-22.84-150.59,148.75c-7.26,7.17-10.07,19-7.16,30.27s10.68,18.47,19.79,18.47h422.8c31.34,0,62.07-14,86.56-39.38L2574.26,1907l-13.77-22.42Z"/><ellipse class="cls-50" cx="1991.53" cy="2422.97" rx="41.39" ry="53.79"/><path class="cls-51" d="M2624.41,2369.18c-22.86,0-41.39,24.08-41.39,53.79s18.53,53.79,41.39,53.79,41.4-24.09,41.4-53.79S2647.27,2369.18,2624.41,2369.18Z"/><path class="cls-51" d="M2278.53,2369.18c-22.86,0-41.39,24.08-41.39,53.79s18.53,53.79,41.39,53.79,41.4-24.09,41.4-53.79S2301.39,2369.18,2278.53,2369.18Z"/><ellipse class="cls-50" cx="2330.05" cy="2422.97" rx="41.4" ry="53.79"/><rect class="cls-44" x="2025.56" y="2423.36" width="746.95" height="66.94" rx="32.71"/><rect class="cls-47" x="1576.66" y="2423.36" width="815.02" height="66.94" rx="2.57"/><rect class="cls-50" x="1940.93" y="2369.18" width="743.27" height="27.49" rx="1.06"/><path class="cls-52" d="M2704.68,1845.56,2245.42,1844l22.07,534.69H2684c5.82,0,10.65-5.82,11.07-13.33l27.34-495.16C2723.14,1856.92,2715,1845.59,2704.68,1845.56Z"/><polygon class="cls-53" points="1936.33 2377.95 2363.16 2377.95 2392.6 1843.25 1914.26 1842.45 1936.33 2377.95"/><path class="cls-49" d="M2704.68,1845.56,2245.42,1844l0,1.11-331.2-1.11,2.15,59.77,471.24,3.19,327.61,81.28,7.14-117.92C2723.14,1857,2715,1845.6,2704.68,1845.56Z"/><rect class="cls-52" x="2227.74" y="1831.28" width="512.38" height="53.34" rx="2"/><path class="cls-50" d="M2596.46,1845.63h-66.35c-5.67,0-10.78,4.66-12.52,11.66-5.28,21.14-7.81,63.64,57.15,63.64,43.37,0,44.17-34.16,40.08-56.46C2612.79,1853.42,2605.2,1845.63,2596.46,1845.63Z"/><path class="cls-50" d="M2394.9,2056.36c-20.58,21.35-46.43,33.11-72.78,33.11H1902.87l18.15-17.93h-36.17c-5.84,7.26-8,18-5.32,28.15,2.91,11.22,10.68,18.47,19.79,18.47h422.8c31.34,0,62.07-14,86.56-39.38L2574.26,1907l-13.77-22.42Z"/><rect class="cls-53" x="1900.46" y="1831.28" width="512.38" height="53.34" rx="2"/><ellipse class="cls-43" cx="1515.22" cy="2492.05" rx="103.39" ry="122.23" transform="translate(-90.14 57.09) rotate(-2.1)"/><polygon class="cls-43" points="1488.72 2370.69 1466.58 2371.47 1475.3 2615.76 1519.58 2614.2 1510.86 2369.9 1488.72 2370.69"/><path class="cls-44" d="M1466.58,2371.47c-57.06,2-101.37,58.34-99,125.8s50.62,120.51,107.69,118.5,101.37-58.34,99-125.8S1523.64,2369.45,1466.58,2371.47Z"/><path class="cls-45" d="M1467.27,2390.9c-48,1.69-85.24,49.06-83.22,105.79s42.57,101.34,90.55,99.65,85.25-49.06,83.23-105.79S1515.26,2389.2,1467.27,2390.9Z"/><path class="cls-44" d="M1468.61,2428.35c-30.49,1.07-54.17,31.17-52.88,67.22s27,64.4,57.54,63.32,54.17-31.17,52.88-67.22S1499.1,2427.27,1468.61,2428.35Z"/><path class="cls-40" d="M1470.47,2480.52c-6.12.22-10.87,6.26-10.61,13.49s5.43,12.92,11.55,12.7,10.87-6.25,10.61-13.48S1476.59,2480.3,1470.47,2480.52Z"/><path class="cls-44" d="M1489,2340.54c-14.4.34-40.88-.08-78.67,12.58-8.94,3,23.52,11.2,25.62,19.76,10.25-.3,20.5-.38,30.77,0a30.19,30.19,0,0,1,18.71,7.35c1.7-.14,3.4-.32,5.12-.4q2.84-.12,5.64-.12c70.14,0,124.47,57.88,127.74,131.62a1.09,1.09,0,0,0,0,.18c.4,9.3-22.81,16.75-13.47,16.75h35.49a17.26,17.26,0,0,0,17.36-17.77l0-.7C1659.05,2414.8,1583.79,2338.28,1489,2340.54Z"/><path class="cls-47" d="M1454,2344.91a160.37,160.37,0,0,0-41.45,7.33,17.33,17.33,0,0,0-9.49,25.69l.19.3a17.27,17.27,0,0,0,19.85,7.35,125.18,125.18,0,0,1,32.45-5.78q2.84-.12,5.64-.12c70.14,0,128.85,57.88,132.12,131.62v.18a17.3,17.3,0,0,0,17.18,16.75h.47a17.26,17.26,0,0,0,17.36-17.77l0-.7C1624,2414.8,1545.73,2340.84,1454,2344.91Z"/><ellipse class="cls-42" cx="2347.24" cy="2555.38" rx="7.17" ry="9.43"/><path class="cls-40" d="M2016.8,1387v26.48a1.07,1.07,0,0,0,1.06,1.06h43.8v-28.69H2018A1.15,1.15,0,0,0,2016.8,1387Z"/><rect class="cls-45" x="2050.44" y="1385.83" width="186.62" height="28.69" rx="1.1"/><path class="cls-54" d="M1765.06,1387.38c-4.49-.28-18.37.61-18.37.61-33.85,25.54-17.8,176.4-17.8,176.4l30.3,10.14S1813,1390.29,1765.06,1387.38Z"/><path class="cls-10" d="M1752.46,1387.38c-47.9-2.92-36.17,177-36.17,177l30.31,10.14S1800.36,1390.29,1752.46,1387.38Z"/><path class="cls-54" d="M1767,1561.44l-15.94-3.13,76.07,272.34c23.14-92.73,23.26-153.78,15.76-193.34A95.8,95.8,0,0,0,1767,1561.44Z"/><path class="cls-10" d="M1729,1558.56c-131,9.72-115.36,255.8-115.36,255.8l213.12,19.45S1860,1548.83,1729,1558.56Z"/><path class="cls-11" d="M1755,1587.35c-131,9.72-141.37,227-141.37,227l213.12,19.45s18.69-160.26-27.2-236.32C1788,1589.85,1773.37,1586,1755,1587.35Z"/><path class="cls-54" d="M1749.28,1403c-4.93,0-8.92,5-8.92,11.22s4,11.23,8.92,11.23,8.93-5,8.93-11.23S1754.21,1403,1749.28,1403Z"/><polygon class="cls-11" points="1610.71 1825.47 1827.49 1845.32 1827.84 1822.61 1614.58 1802.46 1610.71 1825.47"/><rect class="cls-40" x="1725.09" y="1405.03" width="29.92" height="17.77" rx="8.68"/><path class="cls-55" d="M2559.86,1972.74c-66.93,3.17-74.86,329.19-75.8,405.22h84.85C2581.61,2292.43,2625.6,1969.63,2559.86,1972.74Z"/><path class="cls-55" d="M2129.34,1950.43c-67.82,5.68-23.38,351.5-12.91,427.53H2191C2192.75,2301.93,2197.28,1944.74,2129.34,1950.43Z"/><path class="cls-13" d="M2700.76,850.36l-7.6.63s-2.53,44.09,32.92,38.42,81-54.17,82.3-104.55l-32.29-2.52Z"/><path class="cls-23" d="M2163.68,1323c-55.71,21.41-32.92,36.53-32.92,36.53l105.09-29S2219.39,1301.57,2163.68,1323Z"/><polygon class="cls-35" points="3374.7 2473.22 3361.32 2628.9 3840.77 2613.96 3853.94 2611.77 3791.09 2423.05 3374.7 2473.22"/><polygon class="cls-40" points="3362.08 2474.74 3361.29 2635.11 3840.77 2613.96 3778.47 2424.57 3362.08 2474.74"/><polygon class="cls-56" points="3349.86 761.4 3553.27 2432.6 3586.91 2428.54 3383.51 757.35 3349.86 761.4"/><path class="cls-56" d="M3566.75,2403.11c-74.75,8.21-18.24,36.43-18.24,36.43l51.26-6.18S3641.5,2394.9,3566.75,2403.11Z"/><path class="cls-35" d="M3583.53,2530.05c4.46,1.87,6.17-46.37,6.74-70.07l-6.28.76C3582.36,2480.13,3578.82,2528.08,3583.53,2530.05Z"/><path class="cls-35" d="M3592,2459.78c4,33.54,15.14,122.81,20.5,124.11,5.63,1.36-4.94-96.87-8.15-125.6Z"/><path class="cls-35" d="M3423.59,2480.06c-.66,19.47-2.09,77.24,3.94,83.12s4.33-62.52,3.63-84Z"/><path class="cls-35" d="M3738.11,2442.17c4.27,23.35,17.55,91.44,27.59,92.21,9.36.72-6.93-64.17-14.83-93.74Z"/><path class="cls-35" d="M3504.34,2470.33c-1.16,25.83-3.71,100,5.22,102.87s5.17-77.08,3.63-103.93Z"/><path class="cls-35" d="M3652.79,2452.45c-.88,16.51-2.31,56.42,4.2,63.18s5.17-43.45,4.33-64.21Z"/><path class="cls-57" d="M3385.51,2541.69c.12-2.62.13-5.86,0-9.5Z"/><path class="cls-35" d="M3432.33,2479c4.86,21.39,21.14,91,27.39,92.23,5.82,1.19-5.62-65.85-10.71-94.24Z"/><path class="cls-35" d="M3663.19,2451.2c6.11,22.6,22.82,82.58,28,82.6s-9.74-61.22-15.5-84.11Z"/><path class="cls-35" d="M3515.53,2469c6.87,20,24,69.08,27,70s-11.32-50.5-17.2-71.17Z"/><path class="cls-56" d="M3811.06,2398.9a1.59,1.59,0,0,0-1.78-1.39l-468.43,56.43a1.61,1.61,0,0,0-1.4,1.78l4.71,38.67a1.6,1.6,0,0,0,1.78,1.4l468.43-56.44a1.59,1.59,0,0,0,1.4-1.77Z"/><path class="cls-9" d="M2948.54,795.48c-96.35-42.24-82.47,83.67-82.47,83.67,17.15,154.34-25.28,263.1-25.28,263.1,116.78,38.1,195.88,11.42,195.88,11.42S3062,1040,3058.76,986.37,3044.88,837.72,2948.54,795.48Z"/><path class="cls-9" d="M2561.53,939.26c-16.33,67.42-75.94,216.89-75.94,216.89s37.59,59.5,136.78,59.4L2697,1082.39l-41.15-225.1S2577.85,871.84,2561.53,939.26Z"/><path class="cls-58" d="M2800.14,2375.44l1.84,42.64c114.51,26.81,221.67-11,221.67-11l-.61-43.87C2947.72,2395.54,2800.14,2375.44,2800.14,2375.44Z"/><path class="cls-58" d="M3048.15,2365.08l-1.23,43.26c98.59,34.72,202.49-12.19,202.49-12.19l-1-37.16C3118.57,2394.93,3048.15,2365.08,3048.15,2365.08Z"/><path class="cls-14" d="M2880.7,1154.23s98.05,51.06,125,50.66c0,0,4.82-36.57,4.25-46.11C3009.94,1158.78,2932.48,1168.55,2880.7,1154.23Z"/><path class="cls-14" d="M2488.45,1160.92c14.08,33.81,94.61,97.48,94.61,97.48,4.59-2.74,23-43.26,23-43.26C2524.27,1204.18,2488.45,1160.92,2488.45,1160.92Z"/><path class="cls-59" d="M3050.6,1934.35c-203.31-17.06-178.81-543.44-178.81-543.44l-112.68,82.85c-31.84,63.37-26.44,544.73-26.44,544.73,215.09,161.19,557.48,8.61,557.48,8.61l-19.1-107.37S3253.9,1951.41,3050.6,1934.35Z"/></g></svg>