<svg version="1.2" xmlns="http://www.w3.org/2000/svg" viewBox="0 0 32 32" width="32" height="32">
	<title>Artboard-47-svg</title>
	<style>
		.s0 { fill: #29292d } 
	</style>
	<g id="Backward">
		<path id="Layer" class="s0" d="m32 5q0-0.2 0-0.3-0.1-0.2-0.2-0.3-0.1-0.1-0.2-0.2-0.1-0.1-0.3-0.1 0-0.1-0.1-0.1 0 0 0 0-0.1 0-0.1 0-0.1 0-0.1 0-0.1 0-0.2 0-0.1 0.1-0.2 0.1-0.2 0.1-0.2 0.1-0.1 0.1-0.2 0.2-1.3 1.8-3 3.2-1.7 1.4-3.7 2.4-2 1-4.1 1.5-2.2 0.5-4.4 0.5h-2v-5q0-0.3-0.2-0.5-0.1-0.3-0.4-0.4-0.3-0.1-0.6-0.1-0.3 0.1-0.5 0.3l-11 10q-0.1 0.1-0.2 0.3-0.1 0.2-0.1 0.4 0 0.2 0.1 0.4 0.1 0.2 0.2 0.3l11 10q0.2 0.2 0.5 0.3 0.3 0 0.6-0.1 0.3-0.1 0.4-0.4 0.2-0.2 0.2-0.5v-5h2c2.2 0 4.4-0.4 6.5-1.3 2.1-0.9 3.9-2.1 5.5-3.7 1.6-1.6 2.8-3.4 3.7-5.5 0.9-2.1 1.3-4.3 1.3-6.5z"/>
	</g>
</svg>